# xmcd
#
# Track frame offsets:
# 150
# 16213
# 31507
# 47252
# 60504
# 74597
# 89961
# 101815
# 115180
# 129945
# 142615
# 156566
# 167523
# 184210
# 197450
# 216523
# 230752
# 244300
# 254499
# 265940
# 282867
# 297779
# 312156
# 329803
#
# Disc length: 4579 seconds
#
#
# Revision: 0
# Processed by: cddbd v1.5.1PL2 Copyright (c) Steve Scherf et al.
# Submitted via: FreeRIP 2.945 
#
DISCID=6711e118
DTITLE=gino e geno teodoro e sampaio - Dançando com teodoro e sampaio gino e geno
DYEAR=1900
DGENRE=Country
TTITLE0=agita aí
TTITLE1=Bão Também
TTITLE2=Dando mole
TTITLE3=Filho da tuta
TTITLE4=Que bicho é
TTITLE5=O Garrafão
TTITLE6=O Olhar dessa Malvada
TTITLE7=Se a casa cair
TTITLE8=To ficando com ela
TTITLE9=Só dou Carona pra quem deu pra mim
TTITLE10=Tá Nervoso vai Pescar
TTITLE11=Garanhão da madrugada
TTITLE12=Eu já Fui de Voce
TTITLE13=Na Mira do Chifrudo
TTITLE14=Bebo pra Carai
TTITLE15=Namorada do Gaguinho
TTITLE16=So feio mas to na moda
TTITLE17=Silicone Já
TTITLE18=Churrasco de Paixão
TTITLE19=O tocador
TTITLE20=A galera do Chapeu
TTITLE21=Mulher boa
TTITLE22=Acidente de amor
TTITLE23=Ricardão
EXTD=
EXTT0=
EXTT1=
EXTT2=
EXTT3=
EXTT4=
EXTT5=
EXTT6=
EXTT7=
EXTT8=
EXTT9=
EXTT10=
EXTT11=
EXTT12=
EXTT13=
EXTT14=
EXTT15=
EXTT16=
EXTT17=
EXTT18=
EXTT19=
EXTT20=
EXTT21=
EXTT22=
EXTT23=
PLAYORDER=
